<svg xmlns="http://www.w3.org/2000/svg" viewBox="0 0 221 80.56"><title>UEFA Euro 2024 logo</title><path fill="#fff" d="M503.8,478.86l-9.79,2a1.48,1.48,0,0,0-1.22,1.84l2,9.62a4.84,4.84,0,0,0,2.08,3.35,4.72,4.72,0,0,0,2.52.65,8.09,8.09,0,0,0,1.59-.17l6.12-1.24-.74-3.63-6,1.21c-1.22.25-1.61.11-1.89-1.26l-.21-1,6.89-1.4-.73-3.59-6.89,1.4L497,484l7.53-1.53Zm-20.68,21.72a3.3,3.3,0,0,1-2.4.82c-1-.11-1.57-.51-2.55-1.71l-5.61-6.9-3,2.46,6.11,7.51a6.46,6.46,0,0,0,4.52,2.6l.61,0a7.33,7.33,0,0,0,4.78-1.81,7.23,7.23,0,0,0,2.84-4.91,6.46,6.46,0,0,0-1.63-5l-6.11-7.51-3,2.46,5.61,6.9c1,1.2,1.25,1.86,1.16,2.84A3.31,3.31,0,0,1,483.12,500.58ZM536,514.13l2-2.48a37.55,37.55,0,0,0-56.27,0l2,2.48c5.75-7.15,15.52-12.07,26.13-12.07S530.25,507,536,514.13ZM517.23,484l-2.46,9.51a1.48,1.48,0,0,0,1.12,1.9l2.24.58,1.59-6.15,6.79,1.76.92-3.54-6.79-1.76.26-1c.35-1.35.75-1.46,2-1.15l5.87,1.52.93-3.58-6-1.56C520.3,479.63,518,480.87,517.23,484Zm38.14,6.26q-1.54-1.54-3.22-3a65.37,65.37,0,0,0-84.58,0q-1.67,1.45-3.22,3l2.07,2.56q1.57-1.59,3.28-3.07a62.1,62.1,0,0,1,80.3,0q1.71,1.48,3.28,3.07Zm-17.89,15.26.67-2.32L535.26,501l2.33-1.67,1.35,1,1.53-5.17-8.89,5.75-3.64-2.06,13.94-9a1.71,1.71,0,0,1,2.2.06l.6.46a1.73,1.73,0,0,1,.62,2.11l-4.63,15.93ZM584.83,547l4.35-4c5.1-4.65,8-8.9,8-13.37,0-5.52-4.17-9.49-10.6-9.49s-10.67,4-10.54,10.26l5.3.3c-.17-3.32,1.7-5.73,5-5.73s5.21,2,5.12,5.09-2.35,6.09-6,9.49c-2.33,2.18-9.25,8.1-9.25,8.1v4.19h21.23V547Zm-47.18,0,4.35-4c5.1-4.65,8-8.9,8-13.37,0-5.52-4.17-9.49-10.6-9.49s-10.67,4-10.54,10.26l5.3.3c-.17-3.32,1.7-5.73,5-5.73s5.21,2,5.12,5.09-2.35,6.09-6,9.49c-2.33,2.18-9.25,8.1-9.25,8.1v4.19h21.23V547Zm80.59-7.42v-19h-7.37l-13.18,19.71v4.1H609l.75-4.83h-5.9l8.95-13.7h0v13.71h0v4.83h0v7.46h5.48v-7.46h4.27v-4.83ZM518.18,536c0,5-2.57,8.48-6.64,9.21l1.07,6.93C521,551,526.44,544.84,526.44,536c0-9.75-6.6-16.27-16.58-16.27s-16.58,6.52-16.58,16.27c0,8.87,5.41,15.05,13.84,16.14l1.07-6.93c-4.08-.73-6.64-4.18-6.64-9.21,0-5.6,3.28-9.36,8.31-9.36S518.18,530.37,518.18,536Zm-28.75-5.16c0-5.86-4.1-10.22-11.82-10.22H462.52v31.26h7.76V527.53h6.6c2.63,0,4.4,1.29,4.4,3.88,0,2.41-1.47,5.07-4.4,5.07h-3.57l5.9,15.37h8.32l-5.71-10.28C486.6,540.58,489.42,535.85,489.42,530.81Zm-87.92,21H424v-6.68H409.26v-5.73h13.45v-6.3H409.26v-5.82H424v-6.73H401.5ZM568.95,536.2c0-7.65-1.94-11.17-5.65-11.17-4,0-5.69,4-5.69,11,0,7.74,1.94,11.26,5.69,11.26C567.22,547.33,568.95,543.28,568.95,536.2Zm5.73,0c0,10.69-4.36,16.05-11.38,16.05-7.63,0-11.47-6-11.47-16.18,0-10.6,4.27-15.92,11.47-15.92C570.71,520.15,574.68,526.09,574.68,536.2ZM430.09,520.59h7.76V540c0,3.45,2.2,5.3,5.43,5.3,3.58,0,5.43-2.11,5.43-5.3V520.59h7.72v19.75c0,7.24-4.79,11.94-13.15,11.94-8,0-13.19-4.4-13.19-11.94Z" transform="translate(-401.5 -471.72)"/></svg>